<?xml version="1.0" standalone="no"?>
<!DOCTYPE svg PUBLIC "-//W3C//DTD SVG 20010904//EN"
 "http://www.w3.org/TR/2001/REC-SVG-20010904/DTD/svg10.dtd">
<svg version="1.0" xmlns="http://www.w3.org/2000/svg"
 width="320.000000pt" height="320.000000pt" viewBox="0 0 320.000000 320.000000"
 preserveAspectRatio="xMidYMid meet">
<metadata>
Created by potrace 1.11, written by Peter Selinger 2001-2013
</metadata>
<g transform="translate(0.000000,320.000000) scale(0.100000,-0.100000)"
fill="#000000" stroke="none">
<path d="M1574 2885 c-3 -8 -1 -36 5 -63 13 -60 3 -90 -84 -264 -95 -191 -282
-446 -344 -470 -44 -16 -61 -37 -54 -69 3 -19 -1 -38 -12 -55 -13 -21 -15 -31
-6 -50 14 -31 30 -30 56 3 l22 26 69 -17 c223 -54 591 -126 652 -126 36 0 44
4 54 26 10 20 9 32 -4 57 -8 18 -23 66 -32 107 -10 41 -22 87 -28 102 -17 46
-4 74 42 86 50 12 135 6 173 -13 37 -18 37 -18 37 -2 0 21 -57 74 -106 97 -26
13 -75 25 -117 29 -61 5 -72 9 -75 26 -2 11 -6 27 -9 35 -3 8 -7 26 -8 40 -1
14 -12 68 -24 120 -12 52 -24 127 -28 165 -8 98 -34 148 -98 190 -57 38 -73
42 -81 20z m76 -293 c0 -9 -7 -11 -22 -6 -31 9 -31 9 -17 35 11 22 12 22 25 4
8 -10 14 -25 14 -33z m62 -188 c20 -64 34 -123 31 -129 -4 -11 -32 -20 -93
-30 -8 -2 -49 -13 -90 -25 -41 -12 -92 -23 -112 -26 -33 -4 -36 -3 -31 16 3
12 16 25 28 30 12 5 27 21 34 37 6 16 21 33 33 38 13 6 38 30 56 55 19 25 45
58 58 75 14 16 27 40 31 52 3 13 8 23 12 23 4 0 23 -52 43 -116z m-72 -264 c9
-16 15 -18 30 -10 11 6 43 12 72 13 l51 2 18 -58 c10 -32 30 -87 44 -122 38
-89 34 -95 -67 -96 -56 0 -76 -3 -63 -9 15 -6 7 -9 -31 -9 -28 -1 -54 2 -57 5
-4 4 -20 8 -36 9 -102 8 -331 86 -331 113 0 8 83 62 96 62 5 0 30 11 55 25 26
13 49 21 53 18 3 -4 6 1 6 10 0 16 9 21 28 15 4 -2 6 -6 5 -10 -4 -12 3 -10
52 13 25 12 45 27 45 35 0 21 18 17 30 -6z"/>
<path d="M1815 1680 c-40 -3 -61 -8 -50 -11 12 -4 2 -7 -27 -8 -25 0 -48 3
-50 7 -1 5 -21 7 -43 4 -33 -4 -36 -6 -20 -13 11 -5 -32 -5 -95 -1 -143 9
-332 6 -385 -6 -36 -8 -29 -9 60 -15 107 -7 453 -24 728 -35 93 -4 173 -5 178
-2 16 11 23 69 8 74 -22 8 -227 12 -304 6z m-138 -26 c-3 -3 -12 -4 -19 -1 -8
3 -5 6 6 6 11 1 17 -2 13 -5z"/>
<path d="M831 1462 c-5 -10 -51 -126 -101 -258 -51 -131 -94 -242 -97 -246 -2
-5 2 -8 10 -8 9 0 28 33 49 88 l34 87 121 3 121 3 33 -91 c20 -54 39 -90 47
-90 9 0 12 6 7 18 -4 9 -47 121 -95 247 -48 127 -91 238 -95 248 -9 22 -22 22
-34 -1z m70 -159 c27 -71 49 -134 49 -140 0 -10 -28 -13 -105 -13 -58 0 -105
3 -105 7 0 15 104 282 109 278 2 -3 26 -62 52 -132z"/>
<path d="M1204 1470 c-38 -15 -74 -68 -74 -110 0 -51 29 -84 135 -154 94 -62
119 -92 119 -144 0 -26 -8 -41 -31 -62 -52 -46 -106 -48 -205 -5 -13 5 -18 3
-18 -8 0 -21 71 -47 126 -47 88 0 154 55 154 128 0 57 -25 87 -130 157 -55 37
-105 76 -111 87 -20 37 -13 88 14 116 35 35 116 41 170 13 34 -17 38 -17 35
-3 -2 9 -14 22 -28 29 -28 14 -124 16 -156 3z"/>
<path d="M1530 1216 c0 -167 4 -266 10 -266 6 0 11 89 12 233 l3 232 106 -230
c59 -127 113 -231 121 -233 10 -2 47 68 121 230 l107 233 0 -232 c0 -200 2
-233 15 -233 13 0 15 35 15 259 0 143 -4 262 -9 265 -14 9 -22 -6 -137 -256
-59 -131 -110 -235 -113 -232 -3 3 -55 114 -117 246 -61 133 -116 244 -122
246 -9 3 -12 -64 -12 -262z"/>
<path d="M2295 1358 c-26 -68 -72 -185 -101 -261 -30 -77 -54 -141 -54 -143 0
-2 6 -4 13 -4 7 0 28 41 46 90 l33 91 121 -3 121 -3 34 -87 c19 -49 40 -88 47
-88 8 0 -10 61 -55 178 -110 287 -134 345 -146 349 -7 2 -32 -47 -59 -119z
m116 -65 c27 -70 49 -131 49 -135 0 -4 -50 -8 -111 -8 -85 0 -110 3 -106 13 3
6 29 72 58 146 29 74 55 129 57 123 2 -6 26 -69 53 -139z"/>
<path d="M1141 813 c-45 -22 -75 -86 -61 -132 13 -46 23 -56 121 -122 100 -67
129 -99 129 -143 0 -89 -118 -136 -215 -86 -47 24 -45 24 -45 7 0 -8 18 -22
39 -32 58 -26 161 -18 197 15 42 39 57 83 44 130 -11 42 -56 82 -168 150 -80
48 -103 111 -61 163 30 39 87 53 144 37 25 -7 48 -17 51 -21 8 -14 24 -11 24
4 0 21 -66 47 -118 47 -26 0 -62 -8 -81 -17z"/>
<path d="M1630 821 c-73 -23 -147 -88 -176 -156 -10 -23 -17 -67 -17 -105 0
-157 110 -270 261 -270 87 0 135 16 188 63 58 51 85 106 92 183 13 164 -110
296 -272 293 -28 0 -62 -4 -76 -8z m152 -25 c63 -18 110 -57 140 -113 34 -64
42 -113 28 -179 -30 -143 -174 -224 -325 -183 -57 15 -137 100 -154 162 -56
199 116 372 311 313z"/>
<path d="M2245 817 c-123 -47 -199 -171 -180 -295 21 -141 126 -231 270 -232
213 0 340 213 239 401 -48 88 -134 137 -239 137 -33 0 -74 -5 -90 -11z m201
-35 c51 -26 108 -89 124 -137 7 -20 10 -67 8 -105 -5 -87 -42 -151 -113 -195
-44 -27 -57 -30 -129 -30 -90 1 -122 13 -176 67 -63 63 -86 163 -60 259 18 65
91 134 170 160 40 13 133 3 176 -19z"/>
<path d="M200 554 c0 -208 3 -265 13 -262 8 3 13 40 15 127 l3 123 57 -4 c94
-7 160 -71 199 -195 19 -61 39 -72 28 -15 -10 54 -63 148 -103 183 -19 17 -33
31 -31 32 2 1 17 9 34 17 101 52 97 192 -7 246 -17 9 -59 14 -118 14 l-90 0 0
-266z m231 208 c23 -26 29 -41 29 -80 0 -86 -49 -122 -165 -122 l-65 0 0 121
0 121 86 -3 c82 -4 87 -5 115 -37z"/>
<path d="M766 788 c-67 -162 -187 -490 -182 -495 11 -11 22 9 56 100 l33 88
119 -3 120 -3 35 -92 c32 -83 53 -115 53 -81 0 7 -43 127 -97 265 -62 163
-101 253 -110 253 -8 0 -20 -15 -27 -32z m84 -147 c28 -74 49 -136 46 -138 -2
-2 -51 -2 -109 -1 l-105 3 44 115 c53 140 64 164 69 158 2 -2 27 -64 55 -137z"/>
<path d="M2730 555 l0 -265 136 0 c104 0 135 3 132 13 -3 8 -40 13 -126 15
l-122 3 0 249 c0 160 -4 250 -10 250 -6 0 -10 -95 -10 -265z"/>
</g>
</svg>
